<?xml version="1.0" encoding="UTF-8" standalone="no"?><svg width="1440" height="506" viewBox="0 0 1440 506" fill="none" xmlns="http://www.w3.org/2000/svg">
<mask id="mask0_785_4143" style="mask-type:alpha" maskUnits="userSpaceOnUse" x="0" y="0" width="1440" height="506">
<rect width="1440" height="506" fill="#AA82FF"/>
</mask>
<g mask="url(#mask0_785_4143)">
<path d="M752.837 885.757C769.1 895.894 789.072 902.059 808.328 897.866C828.481 893.479 845.314 883.131 857.619 866.251C879.4 836.748 899.146 805.796 916.719 773.61C933.727 742.052 949.68 709.694 961.035 675.614C978.979 621.823 987.534 564.438 979.582 507.984C1011.02 494.296 1040.37 477.213 1069.04 458.328C1092.47 443.118 1113.99 425.128 1133.11 404.751C1146.57 390.189 1159.91 375.634 1170.98 359.143C1181.56 343.075 1190.67 326.096 1198.23 308.408C1205.89 290.872 1209.93 272.714 1213.83 253.995C1216.54 241.157 1217.87 228.068 1217.81 214.948C1217.69 194.853 1216.61 174.562 1212.34 154.977C1207.69 133.838 1201.03 113.189 1192.46 93.3121C1182.93 71.3115 1170.23 51.2164 1157.22 31.1311C1146.26 14.3029 1134.14 -1.73903 1120.95 -16.8774C1084.11 -59.5148 1040.94 -97.2275 996.256 -131.394C972.484 -149.574 947.94 -166.705 922.881 -183.071C906.804 -193.596 886.479 -198.471 867.39 -195.18C848.947 -191.987 828.175 -179.709 818.099 -163.565C808.022 -147.421 801.788 -127.328 805.977 -108.074C810.246 -88.4894 820.398 -70.0398 837.582 -58.7917C880.362 -30.8529 921.792 -0.665694 960.155 33.2323C988.94 60.07 1015.73 89.3348 1037.8 121.945C1047.35 137.796 1055.35 154.528 1061.7 171.911C1064.58 182.844 1066.56 193.994 1067.63 205.25C1067.53 214.2 1066.78 223.131 1065.39 231.973C1062.76 241.556 1059.39 250.922 1055.32 259.988C1048.08 272.572 1039.72 284.474 1030.34 295.55C1013.46 312.63 994.869 327.929 974.861 341.206C956.345 352.322 937.11 362.192 917.281 370.749C891.937 341.095 860.168 318.065 825.557 300.428C790.925 282.62 753.418 271.072 714.764 266.315C695.742 263.987 676.665 264.601 657.57 265.959C640.057 267.21 623.69 272.098 607.103 277.867C592.3 283.008 578.722 291.156 567.22 301.799C559.78 308.849 551.906 316.662 546.583 325.653C536.588 342.524 533.218 352.849 529.872 371.947C527.217 387.052 527.964 403.362 529.869 418.315C531.204 428.781 535.021 439.125 538.279 449.081C539.514 453.01 541.072 456.831 542.938 460.503C556.755 487.091 577.745 510.812 604.313 525.177C618.529 532.866 632.78 540.145 648.262 544.796C664.652 549.64 681.381 553.251 698.311 555.596C728.984 559.977 760.381 558.83 791.177 556.517C804.918 555.488 818.588 553.844 832.188 551.587C831.773 566.413 830.197 581.185 827.475 595.766C819.91 626.6 808.368 656.135 794.475 684.57C776.404 718.125 755.969 750.352 733.326 781.008C722.355 796.052 718.078 818.369 721.212 836.509C724.412 854.924 736.704 875.677 752.837 885.757Z" fill="#9F79F1"/>
<mask id="mask1_785_4143" style="mask-type:alpha" maskUnits="userSpaceOnUse" x="-368" y="-452" width="706" height="705">
<circle cx="-14.502" cy="-99.5" r="352.5" fill="#D9D9D9"/>
</mask>
<g mask="url(#mask1_785_4143)">
<line x1="57.015" y1="-478.237" x2="57.0149" y2="279.236" stroke="black" stroke-opacity="0.3" stroke-width="0.846339"/>
<line x1="128.107" y1="-478.237" x2="128.107" y2="279.236" stroke="black" stroke-opacity="0.3" stroke-width="0.846339"/>
<line x1="270.292" y1="-478.237" x2="270.292" y2="279.236" stroke="black" stroke-opacity="0.3" stroke-width="0.846339"/>
<line x1="199.201" y1="-478.237" x2="199.2" y2="279.236" stroke="black" stroke-opacity="0.3" stroke-width="0.846339"/>
<line x1="364.234" y1="43.108" x2="-393.239" y2="43.1079" stroke="black" stroke-opacity="0.3" stroke-width="0.846339"/>
<line x1="364.234" y1="185.293" x2="-393.239" y2="185.293" stroke="black" stroke-opacity="0.3" stroke-width="0.846339"/>
<line x1="364.234" y1="114.201" x2="-393.239" y2="114.201" stroke="black" stroke-opacity="0.3" stroke-width="0.846339"/>
</g>
</g>
</svg>
